<mxfile host="app.diagrams.net" modified="2023-07-22T19:32:42.580Z" agent="Mozilla/5.0 (Windows NT 10.0; Win64; x64) AppleWebKit/537.36 (KHTML, like Gecko) Chrome/114.0.0.0 Safari/537.36" etag="P-12oZq5T8Ydu4U9cTQE" version="21.6.5" type="device">
  <diagram id="C5RBs43oDa-KdzZeNtuy" name="Page-1">
    <mxGraphModel dx="1781" dy="2914" grid="1" gridSize="10" guides="1" tooltips="1" connect="1" arrows="1" fold="1" page="1" pageScale="1" pageWidth="827" pageHeight="1169" background="#737373" math="0" shadow="0">
      <root>
        <mxCell id="WIyWlLk6GJQsqaUBKTNV-0" />
        <mxCell id="WIyWlLk6GJQsqaUBKTNV-1" parent="WIyWlLk6GJQsqaUBKTNV-0" />
        <mxCell id="fY6OHjRgQirvAC0cr960-19" value="user should be able to add/edit/remove to do tasks&amp;nbsp;" style="rounded=0;whiteSpace=wrap;html=1;labelBackgroundColor=none;fillColor=#09555B;strokeColor=#BAC8D3;fontColor=#EEEEEE;" vertex="1" parent="WIyWlLk6GJQsqaUBKTNV-1">
          <mxGeometry x="-660" y="-1710" width="470" height="60" as="geometry" />
        </mxCell>
        <mxCell id="fY6OHjRgQirvAC0cr960-30" style="edgeStyle=orthogonalEdgeStyle;rounded=0;orthogonalLoop=1;jettySize=auto;html=1;labelBackgroundColor=none;strokeColor=#0B4D6A;fontColor=default;" edge="1" parent="WIyWlLk6GJQsqaUBKTNV-1" source="fY6OHjRgQirvAC0cr960-28" target="fY6OHjRgQirvAC0cr960-29">
          <mxGeometry relative="1" as="geometry" />
        </mxCell>
        <mxCell id="fY6OHjRgQirvAC0cr960-51" style="edgeStyle=orthogonalEdgeStyle;rounded=0;orthogonalLoop=1;jettySize=auto;html=1;entryX=0.5;entryY=0;entryDx=0;entryDy=0;labelBackgroundColor=none;strokeColor=#0B4D6A;fontColor=default;" edge="1" parent="WIyWlLk6GJQsqaUBKTNV-1" source="fY6OHjRgQirvAC0cr960-28" target="fY6OHjRgQirvAC0cr960-50">
          <mxGeometry relative="1" as="geometry" />
        </mxCell>
        <mxCell id="fY6OHjRgQirvAC0cr960-63" style="edgeStyle=orthogonalEdgeStyle;rounded=0;orthogonalLoop=1;jettySize=auto;html=1;entryX=0;entryY=0.5;entryDx=0;entryDy=0;labelBackgroundColor=none;strokeColor=#0B4D6A;fontColor=default;" edge="1" parent="WIyWlLk6GJQsqaUBKTNV-1" source="fY6OHjRgQirvAC0cr960-28" target="fY6OHjRgQirvAC0cr960-62">
          <mxGeometry relative="1" as="geometry" />
        </mxCell>
        <mxCell id="fY6OHjRgQirvAC0cr960-28" value="Ask user&amp;nbsp; add/delete/edit&amp;nbsp; to do" style="rounded=0;whiteSpace=wrap;html=1;labelBackgroundColor=none;fillColor=#09555B;strokeColor=#BAC8D3;fontColor=#EEEEEE;" vertex="1" parent="WIyWlLk6GJQsqaUBKTNV-1">
          <mxGeometry x="-740" y="-1470" width="120" height="60" as="geometry" />
        </mxCell>
        <mxCell id="fY6OHjRgQirvAC0cr960-32" value="" style="edgeStyle=orthogonalEdgeStyle;rounded=0;orthogonalLoop=1;jettySize=auto;html=1;labelBackgroundColor=none;strokeColor=#0B4D6A;fontColor=default;" edge="1" parent="WIyWlLk6GJQsqaUBKTNV-1" source="fY6OHjRgQirvAC0cr960-29" target="fY6OHjRgQirvAC0cr960-31">
          <mxGeometry relative="1" as="geometry" />
        </mxCell>
        <mxCell id="fY6OHjRgQirvAC0cr960-29" value="ADD" style="rounded=0;whiteSpace=wrap;html=1;labelBackgroundColor=none;fillColor=#09555B;strokeColor=#BAC8D3;fontColor=#EEEEEE;" vertex="1" parent="WIyWlLk6GJQsqaUBKTNV-1">
          <mxGeometry x="-560" y="-1530" width="50" height="30" as="geometry" />
        </mxCell>
        <mxCell id="fY6OHjRgQirvAC0cr960-36" style="edgeStyle=orthogonalEdgeStyle;rounded=0;orthogonalLoop=1;jettySize=auto;html=1;entryX=0;entryY=0.5;entryDx=0;entryDy=0;labelBackgroundColor=none;strokeColor=#0B4D6A;fontColor=default;" edge="1" parent="WIyWlLk6GJQsqaUBKTNV-1" source="fY6OHjRgQirvAC0cr960-31" target="fY6OHjRgQirvAC0cr960-33">
          <mxGeometry relative="1" as="geometry" />
        </mxCell>
        <mxCell id="fY6OHjRgQirvAC0cr960-38" style="edgeStyle=orthogonalEdgeStyle;rounded=0;orthogonalLoop=1;jettySize=auto;html=1;entryX=0;entryY=0.5;entryDx=0;entryDy=0;labelBackgroundColor=none;strokeColor=#0B4D6A;fontColor=default;" edge="1" parent="WIyWlLk6GJQsqaUBKTNV-1" source="fY6OHjRgQirvAC0cr960-31" target="fY6OHjRgQirvAC0cr960-37">
          <mxGeometry relative="1" as="geometry" />
        </mxCell>
        <mxCell id="fY6OHjRgQirvAC0cr960-31" value="save or not ?" style="whiteSpace=wrap;html=1;rounded=0;labelBackgroundColor=none;fillColor=#09555B;strokeColor=#BAC8D3;fontColor=#EEEEEE;" vertex="1" parent="WIyWlLk6GJQsqaUBKTNV-1">
          <mxGeometry x="-460" y="-1532.5" width="120" height="35" as="geometry" />
        </mxCell>
        <mxCell id="fY6OHjRgQirvAC0cr960-40" style="edgeStyle=orthogonalEdgeStyle;rounded=0;orthogonalLoop=1;jettySize=auto;html=1;labelBackgroundColor=none;strokeColor=#0B4D6A;fontColor=default;" edge="1" parent="WIyWlLk6GJQsqaUBKTNV-1" source="fY6OHjRgQirvAC0cr960-33" target="fY6OHjRgQirvAC0cr960-39">
          <mxGeometry relative="1" as="geometry" />
        </mxCell>
        <mxCell id="fY6OHjRgQirvAC0cr960-33" value="YES" style="rounded=0;whiteSpace=wrap;html=1;labelBackgroundColor=none;fillColor=#09555B;strokeColor=#BAC8D3;fontColor=#EEEEEE;" vertex="1" parent="WIyWlLk6GJQsqaUBKTNV-1">
          <mxGeometry x="-280" y="-1570" width="30" height="20" as="geometry" />
        </mxCell>
        <mxCell id="fY6OHjRgQirvAC0cr960-48" style="edgeStyle=orthogonalEdgeStyle;rounded=0;orthogonalLoop=1;jettySize=auto;html=1;entryX=0.5;entryY=1;entryDx=0;entryDy=0;labelBackgroundColor=none;strokeColor=#0B4D6A;fontColor=default;" edge="1" parent="WIyWlLk6GJQsqaUBKTNV-1" source="fY6OHjRgQirvAC0cr960-37" target="fY6OHjRgQirvAC0cr960-39">
          <mxGeometry relative="1" as="geometry" />
        </mxCell>
        <mxCell id="fY6OHjRgQirvAC0cr960-37" value="NO" style="rounded=0;whiteSpace=wrap;html=1;labelBackgroundColor=none;fillColor=#09555B;strokeColor=#BAC8D3;fontColor=#EEEEEE;" vertex="1" parent="WIyWlLk6GJQsqaUBKTNV-1">
          <mxGeometry x="-280" y="-1490" width="30" height="20" as="geometry" />
        </mxCell>
        <mxCell id="fY6OHjRgQirvAC0cr960-42" style="edgeStyle=orthogonalEdgeStyle;rounded=0;orthogonalLoop=1;jettySize=auto;html=1;labelBackgroundColor=none;strokeColor=#0B4D6A;fontColor=default;" edge="1" parent="WIyWlLk6GJQsqaUBKTNV-1" source="fY6OHjRgQirvAC0cr960-39" target="fY6OHjRgQirvAC0cr960-41">
          <mxGeometry relative="1" as="geometry" />
        </mxCell>
        <mxCell id="fY6OHjRgQirvAC0cr960-45" style="edgeStyle=orthogonalEdgeStyle;rounded=0;orthogonalLoop=1;jettySize=auto;html=1;entryX=0.5;entryY=0;entryDx=0;entryDy=0;labelBackgroundColor=none;strokeColor=#0B4D6A;fontColor=default;" edge="1" parent="WIyWlLk6GJQsqaUBKTNV-1" source="fY6OHjRgQirvAC0cr960-39" target="fY6OHjRgQirvAC0cr960-44">
          <mxGeometry relative="1" as="geometry" />
        </mxCell>
        <mxCell id="fY6OHjRgQirvAC0cr960-39" value="Ask user if&amp;nbsp; perform another action?" style="rounded=0;whiteSpace=wrap;html=1;labelBackgroundColor=none;fillColor=#09555B;strokeColor=#BAC8D3;fontColor=#EEEEEE;" vertex="1" parent="WIyWlLk6GJQsqaUBKTNV-1">
          <mxGeometry x="-210" y="-1590" width="120" height="60" as="geometry" />
        </mxCell>
        <mxCell id="fY6OHjRgQirvAC0cr960-43" style="edgeStyle=orthogonalEdgeStyle;rounded=0;orthogonalLoop=1;jettySize=auto;html=1;entryX=0.5;entryY=0;entryDx=0;entryDy=0;labelBackgroundColor=none;strokeColor=#0B4D6A;fontColor=default;" edge="1" parent="WIyWlLk6GJQsqaUBKTNV-1" source="fY6OHjRgQirvAC0cr960-41" target="fY6OHjRgQirvAC0cr960-28">
          <mxGeometry relative="1" as="geometry" />
        </mxCell>
        <mxCell id="fY6OHjRgQirvAC0cr960-41" value="YES" style="rounded=0;whiteSpace=wrap;html=1;labelBackgroundColor=none;fillColor=#09555B;strokeColor=#BAC8D3;fontColor=#EEEEEE;" vertex="1" parent="WIyWlLk6GJQsqaUBKTNV-1">
          <mxGeometry x="-70" y="-1640" width="30" height="20" as="geometry" />
        </mxCell>
        <mxCell id="fY6OHjRgQirvAC0cr960-47" style="edgeStyle=orthogonalEdgeStyle;rounded=0;orthogonalLoop=1;jettySize=auto;html=1;labelBackgroundColor=none;strokeColor=#0B4D6A;fontColor=default;" edge="1" parent="WIyWlLk6GJQsqaUBKTNV-1" source="fY6OHjRgQirvAC0cr960-44" target="fY6OHjRgQirvAC0cr960-46">
          <mxGeometry relative="1" as="geometry" />
        </mxCell>
        <mxCell id="fY6OHjRgQirvAC0cr960-44" value="NO" style="rounded=0;whiteSpace=wrap;html=1;labelBackgroundColor=none;fillColor=#09555B;strokeColor=#BAC8D3;fontColor=#EEEEEE;" vertex="1" parent="WIyWlLk6GJQsqaUBKTNV-1">
          <mxGeometry x="-70" y="-1510" width="30" height="20" as="geometry" />
        </mxCell>
        <mxCell id="fY6OHjRgQirvAC0cr960-46" value="EXIT PROGRAM" style="rounded=0;whiteSpace=wrap;html=1;labelBackgroundColor=none;fillColor=#09555B;strokeColor=#BAC8D3;fontColor=#EEEEEE;" vertex="1" parent="WIyWlLk6GJQsqaUBKTNV-1">
          <mxGeometry y="-1530" width="120" height="60" as="geometry" />
        </mxCell>
        <mxCell id="fY6OHjRgQirvAC0cr960-53" style="edgeStyle=orthogonalEdgeStyle;rounded=0;orthogonalLoop=1;jettySize=auto;html=1;labelBackgroundColor=none;strokeColor=#0B4D6A;fontColor=default;" edge="1" parent="WIyWlLk6GJQsqaUBKTNV-1" source="fY6OHjRgQirvAC0cr960-50" target="fY6OHjRgQirvAC0cr960-52">
          <mxGeometry relative="1" as="geometry" />
        </mxCell>
        <mxCell id="fY6OHjRgQirvAC0cr960-50" value="EDIT" style="rounded=0;whiteSpace=wrap;html=1;labelBackgroundColor=none;fillColor=#09555B;strokeColor=#BAC8D3;fontColor=#EEEEEE;" vertex="1" parent="WIyWlLk6GJQsqaUBKTNV-1">
          <mxGeometry x="-560" y="-1400" width="50" height="30" as="geometry" />
        </mxCell>
        <mxCell id="fY6OHjRgQirvAC0cr960-55" style="edgeStyle=orthogonalEdgeStyle;rounded=0;orthogonalLoop=1;jettySize=auto;html=1;labelBackgroundColor=none;strokeColor=#0B4D6A;fontColor=default;" edge="1" parent="WIyWlLk6GJQsqaUBKTNV-1" source="fY6OHjRgQirvAC0cr960-52" target="fY6OHjRgQirvAC0cr960-54">
          <mxGeometry relative="1" as="geometry" />
        </mxCell>
        <mxCell id="fY6OHjRgQirvAC0cr960-52" value="ALLOW USER TO PICK TO DO TO EDIT" style="rounded=0;whiteSpace=wrap;html=1;labelBackgroundColor=none;fillColor=#09555B;strokeColor=#BAC8D3;fontColor=#EEEEEE;" vertex="1" parent="WIyWlLk6GJQsqaUBKTNV-1">
          <mxGeometry x="-460" y="-1415" width="120" height="60" as="geometry" />
        </mxCell>
        <mxCell id="fY6OHjRgQirvAC0cr960-57" style="edgeStyle=orthogonalEdgeStyle;rounded=0;orthogonalLoop=1;jettySize=auto;html=1;entryX=0.5;entryY=1;entryDx=0;entryDy=0;labelBackgroundColor=none;strokeColor=#0B4D6A;fontColor=default;" edge="1" parent="WIyWlLk6GJQsqaUBKTNV-1" source="fY6OHjRgQirvAC0cr960-54" target="fY6OHjRgQirvAC0cr960-56">
          <mxGeometry relative="1" as="geometry" />
        </mxCell>
        <mxCell id="fY6OHjRgQirvAC0cr960-60" style="edgeStyle=orthogonalEdgeStyle;rounded=0;orthogonalLoop=1;jettySize=auto;html=1;entryX=0.5;entryY=0;entryDx=0;entryDy=0;labelBackgroundColor=none;strokeColor=#0B4D6A;fontColor=default;" edge="1" parent="WIyWlLk6GJQsqaUBKTNV-1" source="fY6OHjRgQirvAC0cr960-54" target="fY6OHjRgQirvAC0cr960-59">
          <mxGeometry relative="1" as="geometry" />
        </mxCell>
        <mxCell id="fY6OHjRgQirvAC0cr960-54" value="save or not ?" style="whiteSpace=wrap;html=1;rounded=0;labelBackgroundColor=none;fillColor=#09555B;strokeColor=#BAC8D3;fontColor=#EEEEEE;" vertex="1" parent="WIyWlLk6GJQsqaUBKTNV-1">
          <mxGeometry x="-310" y="-1402.5" width="120" height="35" as="geometry" />
        </mxCell>
        <mxCell id="fY6OHjRgQirvAC0cr960-58" style="edgeStyle=orthogonalEdgeStyle;rounded=0;orthogonalLoop=1;jettySize=auto;html=1;labelBackgroundColor=none;strokeColor=#0B4D6A;fontColor=default;" edge="1" parent="WIyWlLk6GJQsqaUBKTNV-1" source="fY6OHjRgQirvAC0cr960-56">
          <mxGeometry relative="1" as="geometry">
            <mxPoint x="-120" y="-1520" as="targetPoint" />
          </mxGeometry>
        </mxCell>
        <mxCell id="fY6OHjRgQirvAC0cr960-56" value="YES" style="rounded=0;whiteSpace=wrap;html=1;labelBackgroundColor=none;fillColor=#09555B;strokeColor=#BAC8D3;fontColor=#EEEEEE;" vertex="1" parent="WIyWlLk6GJQsqaUBKTNV-1">
          <mxGeometry x="-170" y="-1440" width="30" height="20" as="geometry" />
        </mxCell>
        <mxCell id="fY6OHjRgQirvAC0cr960-61" style="edgeStyle=orthogonalEdgeStyle;rounded=0;orthogonalLoop=1;jettySize=auto;html=1;labelBackgroundColor=none;strokeColor=#0B4D6A;fontColor=default;" edge="1" parent="WIyWlLk6GJQsqaUBKTNV-1" source="fY6OHjRgQirvAC0cr960-59">
          <mxGeometry relative="1" as="geometry">
            <mxPoint x="-100" y="-1520" as="targetPoint" />
          </mxGeometry>
        </mxCell>
        <mxCell id="fY6OHjRgQirvAC0cr960-59" value="NO" style="rounded=0;whiteSpace=wrap;html=1;labelBackgroundColor=none;fillColor=#09555B;strokeColor=#BAC8D3;fontColor=#EEEEEE;" vertex="1" parent="WIyWlLk6GJQsqaUBKTNV-1">
          <mxGeometry x="-170" y="-1350" width="30" height="20" as="geometry" />
        </mxCell>
        <mxCell id="fY6OHjRgQirvAC0cr960-65" value="" style="edgeStyle=orthogonalEdgeStyle;rounded=0;orthogonalLoop=1;jettySize=auto;html=1;labelBackgroundColor=none;strokeColor=#0B4D6A;fontColor=default;" edge="1" parent="WIyWlLk6GJQsqaUBKTNV-1" source="fY6OHjRgQirvAC0cr960-62" target="fY6OHjRgQirvAC0cr960-64">
          <mxGeometry relative="1" as="geometry" />
        </mxCell>
        <mxCell id="fY6OHjRgQirvAC0cr960-62" value="DELETE" style="rounded=0;whiteSpace=wrap;html=1;labelBackgroundColor=none;fillColor=#09555B;strokeColor=#BAC8D3;fontColor=#EEEEEE;" vertex="1" parent="WIyWlLk6GJQsqaUBKTNV-1">
          <mxGeometry x="-560" y="-1290" width="50" height="30" as="geometry" />
        </mxCell>
        <mxCell id="fY6OHjRgQirvAC0cr960-67" value="" style="edgeStyle=orthogonalEdgeStyle;rounded=0;orthogonalLoop=1;jettySize=auto;html=1;labelBackgroundColor=none;strokeColor=#0B4D6A;fontColor=default;" edge="1" parent="WIyWlLk6GJQsqaUBKTNV-1" source="fY6OHjRgQirvAC0cr960-64" target="fY6OHjRgQirvAC0cr960-66">
          <mxGeometry relative="1" as="geometry" />
        </mxCell>
        <mxCell id="fY6OHjRgQirvAC0cr960-64" value="ALLOW USER TO PICK WHICH TO DO TO DELETE" style="rounded=0;whiteSpace=wrap;html=1;labelBackgroundColor=none;fillColor=#09555B;strokeColor=#BAC8D3;fontColor=#EEEEEE;" vertex="1" parent="WIyWlLk6GJQsqaUBKTNV-1">
          <mxGeometry x="-460" y="-1305" width="120" height="60" as="geometry" />
        </mxCell>
        <mxCell id="fY6OHjRgQirvAC0cr960-69" style="edgeStyle=orthogonalEdgeStyle;rounded=0;orthogonalLoop=1;jettySize=auto;html=1;entryX=0.5;entryY=0;entryDx=0;entryDy=0;labelBackgroundColor=none;strokeColor=#0B4D6A;fontColor=default;" edge="1" parent="WIyWlLk6GJQsqaUBKTNV-1" source="fY6OHjRgQirvAC0cr960-66" target="fY6OHjRgQirvAC0cr960-68">
          <mxGeometry relative="1" as="geometry" />
        </mxCell>
        <mxCell id="fY6OHjRgQirvAC0cr960-73" style="edgeStyle=orthogonalEdgeStyle;rounded=0;orthogonalLoop=1;jettySize=auto;html=1;entryX=0.5;entryY=1;entryDx=0;entryDy=0;labelBackgroundColor=none;strokeColor=#0B4D6A;fontColor=default;" edge="1" parent="WIyWlLk6GJQsqaUBKTNV-1" source="fY6OHjRgQirvAC0cr960-66" target="fY6OHjRgQirvAC0cr960-71">
          <mxGeometry relative="1" as="geometry" />
        </mxCell>
        <mxCell id="fY6OHjRgQirvAC0cr960-66" value="Ask user if&amp;nbsp; perform another action?" style="rounded=0;whiteSpace=wrap;html=1;labelBackgroundColor=none;fillColor=#09555B;strokeColor=#BAC8D3;fontColor=#EEEEEE;" vertex="1" parent="WIyWlLk6GJQsqaUBKTNV-1">
          <mxGeometry x="-270" y="-1305" width="120" height="60" as="geometry" />
        </mxCell>
        <mxCell id="fY6OHjRgQirvAC0cr960-70" style="edgeStyle=orthogonalEdgeStyle;rounded=0;orthogonalLoop=1;jettySize=auto;html=1;entryX=0.5;entryY=1;entryDx=0;entryDy=0;labelBackgroundColor=none;strokeColor=#0B4D6A;fontColor=default;" edge="1" parent="WIyWlLk6GJQsqaUBKTNV-1" source="fY6OHjRgQirvAC0cr960-68" target="fY6OHjRgQirvAC0cr960-28">
          <mxGeometry relative="1" as="geometry" />
        </mxCell>
        <mxCell id="fY6OHjRgQirvAC0cr960-68" value="YES" style="rounded=0;whiteSpace=wrap;html=1;labelBackgroundColor=none;fillColor=#09555B;strokeColor=#BAC8D3;fontColor=#EEEEEE;" vertex="1" parent="WIyWlLk6GJQsqaUBKTNV-1">
          <mxGeometry x="-70" y="-1220" width="30" height="20" as="geometry" />
        </mxCell>
        <mxCell id="fY6OHjRgQirvAC0cr960-74" style="edgeStyle=orthogonalEdgeStyle;rounded=0;orthogonalLoop=1;jettySize=auto;html=1;entryX=0.5;entryY=1;entryDx=0;entryDy=0;labelBackgroundColor=none;strokeColor=#0B4D6A;fontColor=default;" edge="1" parent="WIyWlLk6GJQsqaUBKTNV-1" source="fY6OHjRgQirvAC0cr960-71" target="fY6OHjRgQirvAC0cr960-46">
          <mxGeometry relative="1" as="geometry" />
        </mxCell>
        <mxCell id="fY6OHjRgQirvAC0cr960-71" value="NO" style="rounded=0;whiteSpace=wrap;html=1;labelBackgroundColor=none;fillColor=#09555B;strokeColor=#BAC8D3;fontColor=#EEEEEE;" vertex="1" parent="WIyWlLk6GJQsqaUBKTNV-1">
          <mxGeometry x="-70" y="-1340" width="30" height="20" as="geometry" />
        </mxCell>
      </root>
    </mxGraphModel>
  </diagram>
</mxfile>
